<svg id="Lager_1" data-name="Lager 1" xmlns="http://www.w3.org/2000/svg" viewBox="0 0 246.42 240.08"><defs><style>.cls-1,.cls-3{fill:#fff;}.cls-1,.cls-6{stroke:#006c4f;}.cls-1{stroke-linecap:square;stroke-miterlimit:2;stroke-width:0.75px;}.cls-2{fill:#006c4f;}.cls-4{fill:#e30613;}.cls-5{fill:#f39200;}.cls-6{fill:none;stroke-width:0.5px;}</style></defs><title>7 eleven logo</title><polygon class="cls-1" points="0.38 0.38 246.04 0.38 246.04 239.71 0.38 239.71 0.38 0.38 0.38 0.38"/><polygon class="cls-2" points="4.71 4.88 242.21 4.88 242.21 235.88 4.71 235.88 4.71 4.88 4.71 4.88"/><path class="cls-3" d="M319.21,321.38H384c3.7,0,6,2,7.71,3.86s1.56,5.65,1.56,5.65c-.54,4.49-16.69,183-17.18,186.13-.6,2.7-3.72,5-5.69,5L327,522h-.29v9.08h-58.5l.1-9.08H222.56c-2,0-5.1-2.34-5.7-5-.5-3.1-16.6-182.3-17.45-186.1,0,0-.32-3.59,1.55-5.65s4-3.87,7.7-3.87Z" transform="translate(-174 -301)"/><path class="cls-2" d="M334.45,475.57h2a1.56,1.56,0,0,1,.68.13.9.9,0,0,1,.47.89,1,1,0,0,1-.34.84,1.6,1.6,0,0,1-.92.23h-1.91v-2.08Zm0,5.39v-2.62h1.88a1.83,1.83,0,0,1,.74.11.85.85,0,0,1,.45.8l0,1a3.78,3.78,0,0,0,0,.48.69.69,0,0,0,.07.2h1v-.14a.51.51,0,0,1-.27-.37,2.57,2.57,0,0,1-.06-.52l0-.82a1.38,1.38,0,0,0-.2-.77,1.26,1.26,0,0,0-.54-.38,1.65,1.65,0,0,0,.63-.56,1.62,1.62,0,0,0,.22-.9,1.44,1.44,0,0,0-.86-1.44,2.79,2.79,0,0,0-1.15-.2h-2.82V481Z" transform="translate(-174 -301)"/><path class="cls-4" d="M368.71,339.63v48.75c-16,7-34.43,22.4-37.37,41H281.46c8.55-40.8,47.65-75.12,85.55-89.72l1.7,0Z" transform="translate(-174 -301)"/><path class="cls-5" d="M356.71,341.38c-21.15,11-42.2,24.87-57.55,45.52h-68.4V341.38Z" transform="translate(-174 -301)"/><path class="cls-2" d="M370.49,436.19a10.24,10.24,0,0,1,.12,1.78v29.67h-10.3l-.1-25.29c0-2-3-2.37-4.42-1.64a2.5,2.5,0,0,0-1.63,2.81v24.1H343.7v-34.5H354v1.73c4.35-3.35,14.1-5.4,16.45,1.33Z" transform="translate(-174 -301)"/><polygon class="cls-2" points="127.03 132.13 131.81 152.25 135.41 132.2 144.03 132.13 137.2 166.63 122.2 166.63 116.86 132.13 127.03 132.13 127.03 132.13"/><polygon class="cls-2" points="71.16 132.2 71.16 139.4 63.38 139.38 63.38 146.04 71.38 146.04 71.38 152.38 63.38 152.38 63.38 158.71 71.38 158.71 71.38 166.65 52.66 166.65 52.66 132.2 71.16 132.2 71.16 132.2"/><polygon class="cls-2" points="86.56 158.71 94.21 158.71 94.21 166.63 76.31 166.65 76.31 132.2 86.56 132.2 86.56 158.71 86.56 158.71"/><path class="cls-4" d="M326.41,470.75c-3.45,22.13-2.1,57.55-2.1,57.55H270.86c.6-19.5.45-39.35,4.1-57.55Z" transform="translate(-174 -301)"/><polygon class="cls-2" points="114.87 132.13 114.87 139.33 107.08 139.3 107.08 145.97 115.08 145.97 115.08 152.3 107.08 152.3 107.08 158.63 115.08 158.63 115.08 166.58 96.37 166.58 96.37 132.13 114.87 132.13 114.87 132.13"/><polygon class="cls-2" points="164.87 132.13 164.87 139.33 157.08 139.31 157.08 145.97 165.08 145.97 165.08 152.31 157.08 152.31 157.08 158.64 165.08 158.64 165.08 166.58 146.37 166.58 146.37 132.13 164.87 132.13 164.87 132.13"/><path class="cls-6" d="M330.73,477.94a5.13,5.13,0,1,1,5.12,5.13,5.13,5.13,0,0,1-5.12-5.13Z" transform="translate(-174 -301)"/></svg>